<svg xmlns="http://www.w3.org/2000/svg" width="320" height="85"><g data-name="Group 6099"><path data-name="Rectangle 3104" fill="#fff" d="M0 0h320v85H0z"/><g data-name="Group 6056"><g data-name="Rectangle 3105" fill="none" stroke="#000" stroke-width="2"><path d="M266 29.421h36v24h-36z" stroke="none"/><path d="M267 30.421h34v22h-34z"/></g><path data-name="Path 21947" d="M275.989 55.579h16.022" fill="none" stroke="#000" stroke-width="2"/><path data-name="Polygon 26" d="m290.5 41.421-10 5.5v-11Z"/></g><path data-name="Path 22197" d="M26.873 45.447h.057l4.655-9.367h1.805L34.834 49H32.8l-1.063-10.26h-.076l-4.845 9.481h-.665L21.4 38.759h-.075L20.356 49h-1.33l1.444-12.92h1.8Zm17.442-1.273h-4.864L37.361 49h-1.425l5.7-12.73 1.425-.209L48.5 49h-2.2Zm-4.427-1.121h4.028L42 38.322h-.1Zm10.469-6.973h9.88v.437l-8.075 11.21v.114q4.921 0 6.394-.038a15.813 15.813 0 0 0 2.556-.247h.114L60.446 49H49.274v-.532l8.037-11.134v-.114h-7.334Zm17.879 0a7.537 7.537 0 0 1 5.2 1.625 6.182 6.182 0 0 1 1.814 4.854 5.848 5.848 0 0 1-2.023 4.75A8.128 8.128 0 0 1 67.837 49h-4.522V36.08Zm-.684 11.78a5.762 5.762 0 0 0 4.142-1.349 5.227 5.227 0 0 0 1.406-3.952 5.437 5.437 0 0 0-1.33-4.028 5.613 5.613 0 0 0-4.085-1.311H65.31v10.64Zm16.758-3.686h-4.864L77.356 49h-1.425l5.7-12.73 1.425-.209L88.49 49h-2.2Zm-4.427-1.121h4.028l-1.919-4.731h-.1Zm22.4 2.394h.057L107 36.08h1.8L110.245 49h-2.033l-1.064-10.26h-.076l-4.845 9.481h-.665l-4.75-9.462h-.076L95.767 49h-1.33l1.444-12.92h1.805Zm16.872-9.6a8.026 8.026 0 0 1 2.536.4 7.145 7.145 0 0 1 2.2 1.188 5.463 5.463 0 0 1 1.586 2.109 7.273 7.273 0 0 1 .589 2.993 7.061 7.061 0 0 1-.589 2.926 5.652 5.652 0 0 1-1.567 2.109 7.333 7.333 0 0 1-2.161 1.228 7.156 7.156 0 0 1-2.441.428 8.114 8.114 0 0 1-2.546-.4 7.121 7.121 0 0 1-2.214-1.187 5.545 5.545 0 0 1-1.6-2.109 7.173 7.173 0 0 1-.6-2.992 7.061 7.061 0 0 1 .589-2.926 5.652 5.652 0 0 1 1.573-2.114 7.3 7.3 0 0 1 2.175-1.226 7.29 7.29 0 0 1 2.471-.422Zm.152 12.217a4.165 4.165 0 0 0 3.325-1.52 5.979 5.979 0 0 0 1.292-4.009 5.912 5.912 0 0 0-1.34-3.981 4.329 4.329 0 0 0-3.449-1.567 4.165 4.165 0 0 0-3.325 1.52 6.009 6.009 0 0 0-1.29 4.033 5.9 5.9 0 0 0 1.33 3.971 4.332 4.332 0 0 0 3.458 1.558Zm14.517.936h-1.577l-5.3-12.92h2.223l4.237 10.678h.076l4.142-10.678h1.52Zm9.139-12.92V49h-2V36.08Zm7.98 11.761a15.75 15.75 0 0 0 2.717-.152h.114L153.128 49H146.5V36.08h6.365v1.14h-4.389v4.636h3.933v1.121h-3.933v4.864Zm20.482-9.272a5.4 5.4 0 0 0-3.9-1.52 5.07 5.07 0 0 0-3.714 1.453 5.5 5.5 0 0 0-1.468 4.098 5.125 5.125 0 0 0 1.492 3.962 5.216 5.216 0 0 0 3.676 1.377 6.433 6.433 0 0 0 4.389-1.447h.19l-.475 1.691a6.282 6.282 0 0 1-1.862.751 9.683 9.683 0 0 1-2.394.295 7.692 7.692 0 0 1-5.206-1.72 6.154 6.154 0 0 1-1.995-4.931 6.808 6.808 0 0 1 .608-2.916 5.831 5.831 0 0 1 1.624-2.119 7.449 7.449 0 0 1 2.318-1.254 8.508 8.508 0 0 1 2.727-.437 7.441 7.441 0 0 1 4.085 1.048l.133 1.672Zm5.054-2.489v5.51h6.783v-5.51h2V49h-2v-6.194h-6.783V49h-1.995V36.08Zm18.921 8.094h-4.864L188.449 49h-1.425l5.7-12.73 1.425-.209L199.583 49h-2.2Zm-4.427-1.121H195l-1.919-4.731h-.1ZM210.85 45.5l-.019-9.424h1.292v13h-.855l-8.531-10.184h-.1L202.661 49h-1.292V36.08h1.6l7.824 9.42Zm14.288 0-.019-9.424h1.292v13h-.855l-8.531-10.184h-.1L216.949 49h-1.292V36.08h1.6l7.824 9.42Zm9.253 2.337a15.751 15.751 0 0 0 2.717-.152h.114L236.576 49h-6.631V36.08h6.365v1.14h-4.389v4.636h3.933v1.121h-3.933v4.864Zm8.721 0a16.038 16.038 0 0 0 2.679-.152h.114L245.259 49h-5.814V36.08h1.995v11.761Z" fill="#3c3c3c"/></g></svg>