<svg xmlns="http://www.w3.org/2000/svg" width="320" height="85"><defs><clipPath id="a"><path data-name="Rectangle 3108" fill="none" d="M0 0h18.231v22.965H0z"/></clipPath></defs><g data-name="Group 6100"><path data-name="Rectangle 3106" fill="#fff" d="M0 0h320v85H0z"/><path data-name="Path 22198" d="M72.134 44.04h11.44v.506l-9.35 12.98v.132q5.7 0 7.4-.044a18.31 18.31 0 0 0 2.959-.286h.132L83.816 59H70.88v-.616l9.306-12.892v-.132h-8.492Zm21.714-.264a9.293 9.293 0 0 1 2.937.462 8.273 8.273 0 0 1 2.552 1.375 6.326 6.326 0 0 1 1.837 2.442 8.421 8.421 0 0 1 .682 3.465 8.176 8.176 0 0 1-.682 3.388 6.544 6.544 0 0 1-1.815 2.442 8.491 8.491 0 0 1-2.508 1.419 8.285 8.285 0 0 1-2.827.5 9.4 9.4 0 0 1-2.948-.469 8.246 8.246 0 0 1-2.563-1.375 6.421 6.421 0 0 1-1.848-2.442 8.305 8.305 0 0 1-.693-3.465 8.176 8.176 0 0 1 .682-3.388 6.544 6.544 0 0 1 1.815-2.442 8.456 8.456 0 0 1 2.519-1.419 8.441 8.441 0 0 1 2.86-.493Zm.176 14.146a4.822 4.822 0 0 0 3.85-1.76 6.923 6.923 0 0 0 1.5-4.642 6.845 6.845 0 0 0-1.551-4.609 5.012 5.012 0 0 0-3.997-1.811 4.822 4.822 0 0 0-3.85 1.76 6.957 6.957 0 0 0-1.5 4.664 6.833 6.833 0 0 0 1.54 4.6 5.016 5.016 0 0 0 4.008 1.798Zm18.084-14.146a9.293 9.293 0 0 1 2.937.462 8.273 8.273 0 0 1 2.555 1.375 6.326 6.326 0 0 1 1.837 2.442 8.421 8.421 0 0 1 .682 3.465 8.176 8.176 0 0 1-.682 3.388 6.544 6.544 0 0 1-1.818 2.442 8.491 8.491 0 0 1-2.508 1.419 8.285 8.285 0 0 1-2.827.5 9.4 9.4 0 0 1-2.948-.469 8.246 8.246 0 0 1-2.563-1.375 6.421 6.421 0 0 1-1.848-2.442 8.305 8.305 0 0 1-.693-3.465 8.176 8.176 0 0 1 .682-3.388 6.544 6.544 0 0 1 1.815-2.442 8.456 8.456 0 0 1 2.519-1.419 8.441 8.441 0 0 1 2.86-.493Zm.176 14.146a4.822 4.822 0 0 0 3.85-1.76 6.923 6.923 0 0 0 1.5-4.642 6.845 6.845 0 0 0-1.551-4.609 5.012 5.012 0 0 0-3.997-1.811 4.822 4.822 0 0 0-3.85 1.76 6.957 6.957 0 0 0-1.5 4.664 6.833 6.833 0 0 0 1.54 4.6 5.016 5.016 0 0 0 4.008 1.798Zm19.294-3.036h.066l5.39-10.846h2.09L140.8 59h-2.358l-1.232-11.88h-.088l-5.61 10.98h-.77l-5.5-10.956h-.088L124.032 59h-1.54l1.672-14.96h2.09Zm18.062-4.466-.11 1.408h-6.336l.106-1.408Zm1.96-6.38h11.44v.506l-9.35 12.98v.132q5.7 0 7.4-.044a18.31 18.31 0 0 0 2.959-.286h.132L163.28 59h-12.936v-.616l9.306-12.892v-.132h-8.492Zm21.714-.264a9.293 9.293 0 0 1 2.937.462 8.273 8.273 0 0 1 2.552 1.375 6.326 6.326 0 0 1 1.837 2.442 8.421 8.421 0 0 1 .682 3.465 8.176 8.176 0 0 1-.682 3.388 6.544 6.544 0 0 1-1.815 2.442 8.491 8.491 0 0 1-2.508 1.419 8.285 8.285 0 0 1-2.827.5 9.4 9.4 0 0 1-2.95-.469 8.246 8.246 0 0 1-2.563-1.375 6.421 6.421 0 0 1-1.848-2.442 8.305 8.305 0 0 1-.693-3.465 8.176 8.176 0 0 1 .682-3.388 6.544 6.544 0 0 1 1.815-2.442 8.456 8.456 0 0 1 2.519-1.419 8.441 8.441 0 0 1 2.86-.493Zm.176 14.146a4.822 4.822 0 0 0 3.85-1.76 6.923 6.923 0 0 0 1.5-4.642 6.845 6.845 0 0 0-1.551-4.609 5.012 5.012 0 0 0-3.999-1.811 4.822 4.822 0 0 0-3.85 1.76 6.957 6.957 0 0 0-1.5 4.664 6.833 6.833 0 0 0 1.54 4.6 5.016 5.016 0 0 0 4.008 1.798Zm18.084-14.146a9.293 9.293 0 0 1 2.937.462 8.273 8.273 0 0 1 2.552 1.375 6.326 6.326 0 0 1 1.837 2.442 8.421 8.421 0 0 1 .682 3.465 8.176 8.176 0 0 1-.682 3.388 6.544 6.544 0 0 1-1.815 2.442 8.491 8.491 0 0 1-2.508 1.419 8.285 8.285 0 0 1-2.827.5 9.4 9.4 0 0 1-2.95-.469 8.246 8.246 0 0 1-2.563-1.375 6.421 6.421 0 0 1-1.848-2.442 8.305 8.305 0 0 1-.689-3.463 8.176 8.176 0 0 1 .682-3.388 6.544 6.544 0 0 1 1.815-2.442 8.456 8.456 0 0 1 2.519-1.419 8.441 8.441 0 0 1 2.856-.495Zm.176 14.146a4.822 4.822 0 0 0 3.85-1.76 6.923 6.923 0 0 0 1.5-4.642 6.845 6.845 0 0 0-1.551-4.609 5.012 5.012 0 0 0-3.999-1.811 4.822 4.822 0 0 0-3.85 1.76 6.957 6.957 0 0 0-1.5 4.664 6.833 6.833 0 0 0 1.54 4.6 5.016 5.016 0 0 0 4.008 1.798Zm19.294-3.036h.066l5.39-10.846h2.09L220.26 59h-2.354l-1.232-11.88h-.088l-5.61 10.98h-.77l-5.5-10.956h-.088L203.5 59h-1.54l1.672-14.96h2.09Zm22.11-10.846a6.386 6.386 0 0 1 3.509.836 2.919 2.919 0 0 1 1.287 2.64q0 2.442-3.124 3.256v.11a5.6 5.6 0 0 1 2.948 1.1 3.077 3.077 0 0 1 1.188 2.574 4.03 4.03 0 0 1-.836 2.618 4.324 4.324 0 0 1-2.037 1.426 8.645 8.645 0 0 1-2.717.4h-4.136V44.04Zm-.44 6.314a3.317 3.317 0 0 0 2.2-.682 2.359 2.359 0 0 0 .814-1.914A2.206 2.206 0 0 0 235 45.9a3.749 3.749 0 0 0-2.288-.561h-1.188v5.016Zm.308 7.326a4.158 4.158 0 0 0 2.717-.748 2.847 2.847 0 0 0 .891-2.31 2.576 2.576 0 0 0-1.089-2.244 4.831 4.831 0 0 0-2.849-.77h-1.166v6.072Zm13.31-.022a18.57 18.57 0 0 0 3.1-.176h.132L248.816 59h-6.732V44.04h2.31v13.618Zm11.792-13.882a9.293 9.293 0 0 1 2.937.462 8.273 8.273 0 0 1 2.552 1.375 6.326 6.326 0 0 1 1.837 2.442 8.421 8.421 0 0 1 .682 3.465 8.176 8.176 0 0 1-.682 3.388 6.544 6.544 0 0 1-1.815 2.442 8.491 8.491 0 0 1-2.508 1.419 8.285 8.285 0 0 1-2.827.5 9.4 9.4 0 0 1-2.95-.469 8.246 8.246 0 0 1-2.563-1.375 6.421 6.421 0 0 1-1.848-2.442 8.306 8.306 0 0 1-.693-3.465 8.176 8.176 0 0 1 .682-3.388 6.544 6.544 0 0 1 1.815-2.442 8.456 8.456 0 0 1 2.519-1.419 8.441 8.441 0 0 1 2.86-.493Zm.176 14.146a4.822 4.822 0 0 0 3.85-1.76 6.923 6.923 0 0 0 1.5-4.642 6.845 6.845 0 0 0-1.551-4.609A5.012 5.012 0 0 0 258.1 45.1a4.822 4.822 0 0 0-3.85 1.76 6.957 6.957 0 0 0-1.5 4.664 6.833 6.833 0 0 0 1.54 4.6 5.016 5.016 0 0 0 4.01 1.798Zm18.522 1.342a8.831 8.831 0 0 1-5.995-1.991 7.2 7.2 0 0 1-2.321-5.709 7.884 7.884 0 0 1 .7-3.377 6.7 6.7 0 0 1 1.892-2.453 8.793 8.793 0 0 1 2.684-1.452 9.752 9.752 0 0 1 3.146-.506 11.171 11.171 0 0 1 2.783.341 6.43 6.43 0 0 1 2.057.847l.176 1.914h-.264a6.414 6.414 0 0 0-4.642-1.738 5.821 5.821 0 0 0-4.312 1.705 6.432 6.432 0 0 0-1.694 4.741 6.1 6.1 0 0 0 1.716 4.631A5.91 5.91 0 0 0 277 57.856a7.332 7.332 0 0 0 2.926-.55V51.63h2.266v6.16a7.2 7.2 0 0 1-2.343 1.056 11.112 11.112 0 0 1-3.027.418Z"/><g data-name="Rectangle 3107" transform="translate(16 25)" fill="#fff" stroke="#000" stroke-width="2"><rect width="36" height="36" rx="6" stroke="none"/><rect x="1" y="1" width="34" height="34" rx="5" fill="none"/></g><path data-name="Path 22199" d="M82.04 25.242a3.594 3.594 0 0 1-1.078.126H72.87a12.132 12.132 0 0 1-1.512-.112v1.568c.294-.024.952-.084 1.512-.084h7.868a16.508 16.508 0 0 1-4 4.494 40.414 40.414 0 0 0-2.52-2.072l-1.152.938a32.838 32.838 0 0 1 3.15 2.716 36.141 36.141 0 0 1 2.59 2.94l1.288-1.036a40.753 40.753 0 0 0-2.3-2.478 22.38 22.38 0 0 0 4.942-5.6 4.944 4.944 0 0 1 .406-.49Zm9.142-.938-1.358.462a35.259 35.259 0 0 1 1.4 3.738l1.386-.49a39.4 39.4 0 0 0-1.428-3.714Zm4.662.532a12.858 12.858 0 0 1-2.212 5.81 11.218 11.218 0 0 1-5.5 3.668l1.216 1.232a12.361 12.361 0 0 0 5.5-4.06 15.561 15.561 0 0 0 2.338-5.264 7.706 7.706 0 0 1 .294-.924Zm-8.554.322-1.4.5a36.275 36.275 0 0 1 1.582 3.892l1.414-.518c-.336-.932-1.204-3.048-1.596-3.874Zm24.038.378a20.288 20.288 0 0 0-1.134-1.918L109.3 24a14.373 14.373 0 0 1 .992 1.7l-.056-.028a3.231 3.231 0 0 1-1.05.14h-3.4l.168-.294c.154-.28.448-.826.728-1.246l-1.6-.5a5.624 5.624 0 0 1-.532 1.274 12.587 12.587 0 0 1-4.48 4.76l1.19.924a15.808 15.808 0 0 0 3.7-3.654h4.44a11.218 11.218 0 0 1-1.638 3.4 54.895 54.895 0 0 0-2.884-1.624l-.928 1.048a47.95 47.95 0 0 1 2.856 1.736 12.015 12.015 0 0 1-5.376 3.336l1.26 1.106a13.1 13.1 0 0 0 5.348-3.626c.518.364.98.7 1.316.98l.994-1.274c-.35-.252-.826-.574-1.344-.91a14.8 14.8 0 0 0 1.988-4.018 4.791 4.791 0 0 1 .392-.854l-.826-.5Zm-.448-2.128a14.051 14.051 0 0 1 1.148 1.932l.91-.406a16.55 16.55 0 0 0-1.162-1.9Zm11.48.756a29.77 29.77 0 0 0 4 5.572 6.53 6.53 0 0 1 1.11-1.136 20.023 20.023 0 0 1-3.822-4.984Zm-3.92-.546a12.88 12.88 0 0 1-3.612 5.152 7.2 7.2 0 0 1 1.246.966 17.187 17.187 0 0 0 3.836-5.712Zm4.088 7.7c.6.742 1.246 1.624 1.82 2.478-1.89.1-3.808.182-5.516.252a56.048 56.048 0 0 0 2.576-5.376l-1.54-.378a36.7 36.7 0 0 1-2.534 5.806c-.7.028-1.344.056-1.918.07l.168 1.376c2.478-.126 6.1-.308 9.534-.518q.378.63.63 1.134l1.33-.714a31.81 31.81 0 0 0-3.3-4.7Zm11.214-1.176h2.45v-1.26h-6.076v1.26h2.324v3.752c-1.064.2-2.03.378-2.786.5l.378 1.32c1.792-.392 4.3-.938 6.622-1.47l-.1-1.176c-.938.2-1.89.392-2.814.56Zm4.984-6.1a10.965 10.965 0 0 1 1.89 1.708l.91-.812a10.63 10.63 0 0 0-1.946-1.61Zm3.29 2.982v-1.278H138c-.028-.784-.042-1.61-.028-2.422h-1.4c0 .812.028 1.624.056 2.422h-7.016v1.274h7.1c.35 5.04 1.456 9.114 3.766 9.114 1.162 0 1.624-.686 1.848-3.206a3.3 3.3 0 0 1-1.148-.742c-.084 1.82-.252 2.576-.588 2.576-1.218 0-2.2-3.332-2.506-7.742Zm13.184-1.88c-.28-.518-.756-1.344-1.106-1.848l-.938.392a16 16 0 0 1 .924 1.54 4.965 4.965 0 0 1-.616.028h-6.79a12.666 12.666 0 0 1-1.512-.1v1.554c.35-.014.91-.042 1.512-.042h6.874a9.8 9.8 0 0 1-1.75 4.3 9.3 9.3 0 0 1-5.47 3.332l1.2 1.316a10.83 10.83 0 0 0 5.562-3.794 13.778 13.778 0 0 0 2.1-5.138 4.254 4.254 0 0 1 .252-.812l-.77-.5Zm-.182-1.82a15.514 15.514 0 0 1 1.138 1.876l.952-.42a25.84 25.84 0 0 0-1.134-1.848Zm13.846 3.36v6.3H161.6v-6.3Zm1.47-.21c0-.392 0-.826.028-1.2-.462.014-.966.014-1.288.014h-7.6c-.35 0-.8 0-1.344-.028.014.378.014.854.014 1.218v6.874c0 .56-.028 1.68-.028 1.806h1.514c-.014-.07-.014-.406-.014-.784h7.252c-.014.392-.014.714-.028.784h1.526c0-.112-.028-1.316-.028-1.806Zm8.866-.434c.084-.126.14-.238.21-.364.154-.28.448-.812.728-1.232l-1.624-.532a6.559 6.559 0 0 1-.514 1.26 11.974 11.974 0 0 1-4.4 4.634l1.232.91a14.5 14.5 0 0 0 3.542-3.416h4.382a10.606 10.606 0 0 1-2.128 4.13 11.2 11.2 0 0 1-5.614 3.486l1.3 1.162a12.6 12.6 0 0 0 5.6-3.864 13.856 13.856 0 0 0 2.464-4.76 4.791 4.791 0 0 1 .392-.854l-1.148-.7a3.288 3.288 0 0 1-1.05.14Zm3.6-1.974A16.71 16.71 0 0 1 183.9 26l.924-.392a20.288 20.288 0 0 0-1.134-1.918Zm1.582-.6a14.051 14.051 0 0 1 1.146 1.934l.91-.406a16.55 16.55 0 0 0-1.162-1.9Z"/><g data-name="Group 6058"><g data-name="Group 6057" transform="translate(24.885 31.517)" clip-path="url(#a)"><path data-name="Path 21948" d="M11.122 0c4.249 0 6.3 2.739 6.3 5.887a4.88 4.88 0 0 1-3.1 4.838c.944.35 3.908 1.37 3.908 5.683a6.233 6.233 0 0 1-6.636 6.557H0V0ZM3.909 3.381v6.236h6.348A2.947 2.947 0 0 0 13.4 6.411a2.88 2.88 0 0 0-3.148-3.031Zm0 9.355v6.849h6.479c1.679 0 3.83-.787 3.83-3.5s-2.125-3.351-3.856-3.351Z"/></g></g></g></svg>