<svg data-name="Group 6047" xmlns="http://www.w3.org/2000/svg" width="16.745" height="13.056"><defs><clipPath id="a"><path data-name="Rectangle 3080" fill="#999" d="M0 0h16.745v13.056H0z"/></clipPath></defs><g data-name="Group 6046" clip-path="url(#a)" fill="#999"><path data-name="Path 21928" d="M8.76 13.056H3.285A3.515 3.515 0 0 1 0 9.506V3.285A3.289 3.289 0 0 1 3.285 0h10.174a3.289 3.289 0 0 1 3.285 3.285v6.221a3.515 3.515 0 0 1-3.285 3.55H8.76ZM3.285 1.146a2.141 2.141 0 0 0-2.139 2.139v6.221a2.373 2.373 0 0 0 2.139 2.4h10.174a2.373 2.373 0 0 0 2.139-2.4V3.285a2.141 2.141 0 0 0-2.139-2.139Z"/><path data-name="Path 21929" d="M8.37 7.009 2.298 3.917a.43.43 0 0 1 .39-.766l5.687 2.9 5.865-2.9a.43.43 0 1 1 .381.771Z"/></g></svg>