<svg xmlns="http://www.w3.org/2000/svg" width="11.791" height="16.643"><g data-name="Group 6044"><path data-name="Path 21925" d="M5.9 16.643a1.244 1.244 0 0 1-.923-.411C4.923 16.178 0 10.682 0 5.654A5.717 5.717 0 0 1 5.9.001a5.717 5.717 0 0 1 5.9 5.654c0 5.029-4.923 10.524-4.973 10.579a1.243 1.243 0 0 1-.923.41m0-15.422A4.51 4.51 0 0 0 1.22 5.654c0 4.536 4.611 9.709 4.658 9.761h.036c.046-.051 4.657-5.224 4.657-9.76A4.511 4.511 0 0 0 5.9 1.22m0 7.781a3.352 3.352 0 1 1 3.348-3.348A3.356 3.356 0 0 1 5.9 9.001m0-5.484a2.132 2.132 0 1 0 2.128 2.136A2.134 2.134 0 0 0 5.9 3.521" fill="#999"/></g></svg>