<svg xmlns="http://www.w3.org/2000/svg" width="16.975" height="18.863"><g data-name="Group 6052"><g data-name="Group 67"><path data-name="Path 100" d="M9.974 13.725a.086.086 0 0 0-.045.122l2.29 4.443a.105.105 0 0 0 .133.048l1.406-.642a.088.088 0 0 0 .039-.126l-2.478-4.231a.1.1 0 0 0-.133-.036Z" fill="#fff"/></g><path data-name="Path 101" d="M5.679 5.396a.084.084 0 0 1-.124-.033L3.263.921a.106.106 0 0 1 .038-.136L4.64.013a.088.088 0 0 1 .125.042l2.01 4.473a.1.1 0 0 1-.049.129Z" fill="#fff"/><path data-name="Path 102" d="M5.536 10.928a22.461 22.461 0 0 1-1.051-2.395 3.747 3.747 0 0 1 .381-2.323.215.215 0 0 0 0-.173l-2.268-4.4a.165.165 0 0 0-.274-.068A6.679 6.679 0 0 0 .053 6.097a12.113 12.113 0 0 0 1.463 6.688 12.246 12.246 0 0 0 4.623 5.117 6.68 6.68 0 0 0 5.007.776.164.164 0 0 0 .1-.262l-2.269-4.4a.213.213 0 0 0-.139-.1 3.741 3.741 0 0 1-2.114-1.037 22.606 22.606 0 0 1-1.342-2.244" fill="#fff"/><g data-name="Group 68" fill="#fff"><path data-name="Path 103" d="m16.446 12.296-1.2-.441a7.376 7.376 0 0 0-4.981-9.662l.336-1.234a8.653 8.653 0 0 1 5.846 11.338Z"/><path data-name="Path 104" d="m14.009 11.521-.954-.371a5.079 5.079 0 0 0-3.49-6.767l.252-.993a6.1 6.1 0 0 1 4.191 8.13Z"/></g></g></svg>