<svg xmlns="http://www.w3.org/2000/svg" width="51.073" height="51.073"><path data-name="Path 21989" d="M25.536 4.6c6.819 0 7.627.026 10.32.149a14.141 14.141 0 0 1 4.743.88 8.456 8.456 0 0 1 4.847 4.847 14.141 14.141 0 0 1 .88 4.743c.123 2.693.149 3.5.149 10.32s-.026 7.627-.149 10.32a14.141 14.141 0 0 1-.88 4.743 8.456 8.456 0 0 1-4.846 4.846 14.141 14.141 0 0 1-4.743.88c-2.693.123-3.5.149-10.32.149s-7.627-.026-10.32-.149a14.141 14.141 0 0 1-4.743-.88A8.456 8.456 0 0 1 5.626 40.6a14.146 14.146 0 0 1-.88-4.743c-.122-2.694-.147-3.5-.147-10.321s.026-7.627.149-10.32a14.141 14.141 0 0 1 .88-4.743 8.456 8.456 0 0 1 4.847-4.847 14.141 14.141 0 0 1 4.743-.88c2.693-.123 3.5-.149 10.32-.149m0-4.6C18.6 0 17.73.029 15.006.153a18.773 18.773 0 0 0-6.2 1.187 13.059 13.059 0 0 0-7.469 7.47 18.752 18.752 0 0 0-1.186 6.2C.027 17.73 0 18.6 0 25.536s.029 7.806.153 10.53a18.773 18.773 0 0 0 1.187 6.2 13.062 13.062 0 0 0 7.47 7.47 18.773 18.773 0 0 0 6.2 1.187c2.721.124 3.59.15 10.527.15s7.806-.029 10.53-.153a18.773 18.773 0 0 0 6.2-1.187 13.062 13.062 0 0 0 7.469-7.469 18.773 18.773 0 0 0 1.187-6.2c.124-2.721.15-3.59.15-10.527s-.029-7.806-.153-10.53a18.773 18.773 0 0 0-1.187-6.2 13.059 13.059 0 0 0-7.469-7.469 18.752 18.752 0 0 0-6.2-1.186C33.342.027 32.473 0 25.536 0m0 12.42a13.116 13.116 0 1 0 13.117 13.116A13.116 13.116 0 0 0 25.536 12.42m0 21.628a8.513 8.513 0 1 1 8.513-8.513 8.514 8.514 0 0 1-8.513 8.513ZM42.235 11.9a3.064 3.064 0 1 1-3.064-3.064 3.064 3.064 0 0 1 3.064 3.064" fill="#999" fill-rule="evenodd"/></svg>