<svg xmlns="http://www.w3.org/2000/svg" width="51.938" height="51.073"><g data-name="Group 6115"><path data-name="Path 6684" d="M51.938 22.232c0 7.675-4.849 13.782-10.626 19.223-2.871 2.706-13.774 9.91-16.429 9.608-.834-.1-1.71-1.306-.446-2.955a1.859 1.859 0 0 0-.36-2.841 23.287 23.287 0 0 0-3.318-.762C8.924 42.329 0 33.505 0 22.232 0 9.348 11.627 0 25.969 0s25.969 9.348 25.969 22.232Z" fill="#999"/><g data-name="Group 2904" fill="#1c1c1c"><path data-name="Path 6685" d="M8.408 28.174V16.589c0-.392.329-.593 1.1-.593h.625c.773 0 1.1.2 1.1.593v9.912h4.1c.391 0 .55.275.55.91v.572c0 .646-.159.922-.55.922h-6.2c-.503 0-.725-.223-.725-.731Z"/><path data-name="Path 6686" d="M17.186 28.354V16.589c0-.392.339-.6 1.113-.6h.634c.773 0 1.1.212 1.1.6v11.765c0 .38-.328.6-1.1.6h-.634c-.774.004-1.113-.219-1.113-.6Z"/><path data-name="Path 6687" d="M22.491 28.354V16.589c0-.392.328-.593 1.1-.593h.794a1.253 1.253 0 0 1 1.208.5l4.342 6.693.5.751v-7.348c0-.392.328-.593 1.1-.593h.53c.773 0 1.1.2 1.1.593v11.765c0 .38-.328.583-1.1.583h-.7a1.246 1.246 0 0 1-1.207-.488l-4.544-6.957-.392-.583v7.445c0 .38-.328.583-1.1.583h-.531c-.772-.003-1.1-.206-1.1-.586Z"/><path data-name="Path 6688" d="M35.706 28.174V16.767c0-.508.221-.731.73-.731h6.736c.38 0 .55.276.55.921v.562c0 .645-.169.921-.55.921h-4.636v2.669h4.14c.382 0 .551.275.551.921v.572c0 .635-.169.911-.551.911h-4.14v2.986h4.649c.392 0 .551.275.551.91v.572c0 .646-.159.922-.551.922h-6.749c-.509.001-.73-.221-.73-.729Z"/></g></g></svg>