<svg xmlns="http://www.w3.org/2000/svg" xmlns:xlink="http://www.w3.org/1999/xlink" width="320" height="85" viewBox="0 0 320 85">
  <defs>
    <clipPath id="clip-path">
      <rect id="Rectangle_3108" data-name="Rectangle 3108" width="18.231" height="22.965" fill="none"/>
    </clipPath>
  </defs>
  <g id="Group_6100" data-name="Group 6100" transform="translate(-1180 -925)">
    <rect id="Rectangle_3106" data-name="Rectangle 3106" width="320" height="85" transform="translate(1180 925)" fill="#fff"/>
    <path id="Path_22198" data-name="Path 22198" d="M2.134-14.96h11.44v.506L4.224-1.474v.132q5.7,0,7.4-.044a18.31,18.31,0,0,0,2.959-.286h.132L13.816,0H.88V-.616l9.306-12.892v-.132H1.694Zm21.714-.264a9.293,9.293,0,0,1,2.937.462,8.273,8.273,0,0,1,2.552,1.375,6.326,6.326,0,0,1,1.837,2.442,8.421,8.421,0,0,1,.682,3.465,8.176,8.176,0,0,1-.682,3.388A6.544,6.544,0,0,1,29.359-1.65,8.491,8.491,0,0,1,26.851-.231a8.285,8.285,0,0,1-2.827.5A9.4,9.4,0,0,1,21.076-.2a8.246,8.246,0,0,1-2.563-1.375,6.421,6.421,0,0,1-1.848-2.442,8.305,8.305,0,0,1-.693-3.465,8.176,8.176,0,0,1,.682-3.388,6.544,6.544,0,0,1,1.815-2.442,8.456,8.456,0,0,1,2.519-1.419A8.441,8.441,0,0,1,23.848-15.224Zm.176,14.146a4.822,4.822,0,0,0,3.85-1.76,6.923,6.923,0,0,0,1.5-4.642,6.845,6.845,0,0,0-1.551-4.609A5.012,5.012,0,0,0,23.826-13.9a4.822,4.822,0,0,0-3.85,1.76,6.957,6.957,0,0,0-1.5,4.664,6.833,6.833,0,0,0,1.54,4.6A5.016,5.016,0,0,0,24.024-1.078ZM42.108-15.224a9.293,9.293,0,0,1,2.937.462A8.273,8.273,0,0,1,47.6-13.387a6.326,6.326,0,0,1,1.837,2.442,8.421,8.421,0,0,1,.682,3.465,8.176,8.176,0,0,1-.682,3.388A6.544,6.544,0,0,1,47.619-1.65,8.491,8.491,0,0,1,45.111-.231a8.285,8.285,0,0,1-2.827.5A9.4,9.4,0,0,1,39.336-.2a8.246,8.246,0,0,1-2.563-1.375,6.421,6.421,0,0,1-1.848-2.442,8.305,8.305,0,0,1-.693-3.465,8.176,8.176,0,0,1,.682-3.388,6.544,6.544,0,0,1,1.815-2.442,8.456,8.456,0,0,1,2.519-1.419A8.441,8.441,0,0,1,42.108-15.224Zm.176,14.146a4.822,4.822,0,0,0,3.85-1.76,6.923,6.923,0,0,0,1.5-4.642,6.845,6.845,0,0,0-1.551-4.609A5.012,5.012,0,0,0,42.086-13.9a4.822,4.822,0,0,0-3.85,1.76,6.957,6.957,0,0,0-1.5,4.664,6.833,6.833,0,0,0,1.54,4.6A5.016,5.016,0,0,0,42.284-1.078ZM61.578-4.114h.066l5.39-10.846h2.09L70.8,0H68.442L67.21-11.88h-.088L61.512-.9h-.77l-5.5-10.956h-.088L54.032,0h-1.54l1.672-14.96h2.09ZM79.64-8.58l-.11,1.408H73.194L73.3-8.58ZM81.6-14.96h11.44v.506l-9.35,12.98v.132q5.7,0,7.4-.044a18.31,18.31,0,0,0,2.959-.286h.132L93.28,0H80.344V-.616L89.65-13.508v-.132H81.158Zm21.714-.264a9.293,9.293,0,0,1,2.937.462,8.273,8.273,0,0,1,2.552,1.375,6.326,6.326,0,0,1,1.837,2.442,8.421,8.421,0,0,1,.682,3.465,8.176,8.176,0,0,1-.682,3.388,6.544,6.544,0,0,1-1.815,2.442,8.491,8.491,0,0,1-2.508,1.419,8.285,8.285,0,0,1-2.827.5A9.4,9.4,0,0,1,100.54-.2a8.246,8.246,0,0,1-2.563-1.375,6.421,6.421,0,0,1-1.848-2.442,8.305,8.305,0,0,1-.693-3.465,8.176,8.176,0,0,1,.682-3.388,6.544,6.544,0,0,1,1.815-2.442,8.456,8.456,0,0,1,2.519-1.419A8.441,8.441,0,0,1,103.312-15.224Zm.176,14.146a4.822,4.822,0,0,0,3.85-1.76,6.923,6.923,0,0,0,1.5-4.642,6.845,6.845,0,0,0-1.551-4.609A5.012,5.012,0,0,0,103.29-13.9a4.822,4.822,0,0,0-3.85,1.76,6.957,6.957,0,0,0-1.5,4.664,6.833,6.833,0,0,0,1.54,4.6A5.016,5.016,0,0,0,103.488-1.078Zm18.084-14.146a9.293,9.293,0,0,1,2.937.462,8.273,8.273,0,0,1,2.552,1.375,6.326,6.326,0,0,1,1.837,2.442,8.421,8.421,0,0,1,.682,3.465,8.176,8.176,0,0,1-.682,3.388,6.544,6.544,0,0,1-1.815,2.442,8.491,8.491,0,0,1-2.508,1.419,8.285,8.285,0,0,1-2.827.5A9.4,9.4,0,0,1,118.8-.2a8.246,8.246,0,0,1-2.563-1.375,6.421,6.421,0,0,1-1.848-2.442A8.305,8.305,0,0,1,113.7-7.48a8.176,8.176,0,0,1,.682-3.388,6.544,6.544,0,0,1,1.815-2.442,8.456,8.456,0,0,1,2.519-1.419A8.441,8.441,0,0,1,121.572-15.224Zm.176,14.146a4.822,4.822,0,0,0,3.85-1.76,6.923,6.923,0,0,0,1.5-4.642,6.845,6.845,0,0,0-1.551-4.609A5.012,5.012,0,0,0,121.55-13.9a4.822,4.822,0,0,0-3.85,1.76,6.957,6.957,0,0,0-1.5,4.664,6.833,6.833,0,0,0,1.54,4.6A5.016,5.016,0,0,0,121.748-1.078Zm19.294-3.036h.066L146.5-14.96h2.09L150.26,0h-2.354l-1.232-11.88h-.088L140.976-.9h-.77l-5.5-10.956h-.088L133.5,0h-1.54l1.672-14.96h2.09Zm22.11-10.846a6.386,6.386,0,0,1,3.509.836,2.919,2.919,0,0,1,1.287,2.64q0,2.442-3.124,3.256v.11a5.6,5.6,0,0,1,2.948,1.1,3.077,3.077,0,0,1,1.188,2.574,4.03,4.03,0,0,1-.836,2.618A4.324,4.324,0,0,1,166.089-.4a8.645,8.645,0,0,1-2.717.4h-4.136V-14.96Zm-.44,6.314a3.317,3.317,0,0,0,2.2-.682,2.359,2.359,0,0,0,.814-1.914A2.206,2.206,0,0,0,165-13.1a3.749,3.749,0,0,0-2.288-.561h-1.188v5.016Zm.308,7.326a4.158,4.158,0,0,0,2.717-.748,2.847,2.847,0,0,0,.891-2.31,2.576,2.576,0,0,0-1.089-2.244,4.831,4.831,0,0,0-2.849-.77h-1.166V-1.32Zm13.31-.022a18.57,18.57,0,0,0,3.1-.176h.132L178.816,0h-6.732V-14.96h2.31V-1.342Zm11.792-13.882a9.293,9.293,0,0,1,2.937.462,8.273,8.273,0,0,1,2.552,1.375,6.326,6.326,0,0,1,1.837,2.442,8.421,8.421,0,0,1,.682,3.465,8.176,8.176,0,0,1-.682,3.388,6.544,6.544,0,0,1-1.815,2.442,8.491,8.491,0,0,1-2.508,1.419,8.285,8.285,0,0,1-2.827.5A9.4,9.4,0,0,1,185.35-.2a8.246,8.246,0,0,1-2.563-1.375,6.421,6.421,0,0,1-1.848-2.442,8.306,8.306,0,0,1-.693-3.465,8.176,8.176,0,0,1,.682-3.388,6.544,6.544,0,0,1,1.815-2.442,8.456,8.456,0,0,1,2.519-1.419A8.441,8.441,0,0,1,188.122-15.224ZM188.3-1.078a4.822,4.822,0,0,0,3.85-1.76,6.923,6.923,0,0,0,1.5-4.642,6.845,6.845,0,0,0-1.551-4.609A5.012,5.012,0,0,0,188.1-13.9a4.822,4.822,0,0,0-3.85,1.76,6.957,6.957,0,0,0-1.5,4.664,6.833,6.833,0,0,0,1.54,4.6A5.016,5.016,0,0,0,188.3-1.078ZM206.822.264a8.831,8.831,0,0,1-5.995-1.991,7.2,7.2,0,0,1-2.321-5.709,7.884,7.884,0,0,1,.7-3.377,6.7,6.7,0,0,1,1.892-2.453,8.793,8.793,0,0,1,2.684-1.452,9.752,9.752,0,0,1,3.146-.506,11.171,11.171,0,0,1,2.783.341,6.43,6.43,0,0,1,2.057.847l.176,1.914h-.264a6.414,6.414,0,0,0-4.642-1.738,5.821,5.821,0,0,0-4.312,1.705,6.432,6.432,0,0,0-1.694,4.741,6.1,6.1,0,0,0,1.716,4.631A5.91,5.91,0,0,0,207-1.144a7.332,7.332,0,0,0,2.926-.55V-7.37h2.266v6.16a7.2,7.2,0,0,1-2.343,1.056A11.112,11.112,0,0,1,206.822.264Z" transform="translate(1250 984)"/>
    <g id="Rectangle_3107" data-name="Rectangle 3107" transform="translate(1196 950)" fill="#fff" stroke="#000" stroke-width="2">
      <rect width="36" height="36" rx="6" stroke="none"/>
      <rect x="1" y="1" width="34" height="34" rx="5" fill="none"/>
    </g>
    <path id="Path_22199" data-name="Path 22199" d="M12.04-9.758a3.594,3.594,0,0,1-1.078.126H2.87a12.132,12.132,0,0,1-1.512-.112v1.568C1.652-8.2,2.31-8.26,2.87-8.26h7.868a16.508,16.508,0,0,1-4,4.494c-.924-.826-1.988-1.68-2.52-2.072L3.066-4.9a32.838,32.838,0,0,1,3.15,2.716A36.141,36.141,0,0,1,8.806.756L10.094-.28c-.56-.672-1.47-1.652-2.3-2.478a22.38,22.38,0,0,0,4.942-5.6,4.944,4.944,0,0,1,.406-.49Zm9.142-.938-1.358.462a35.259,35.259,0,0,1,1.4,3.738l1.386-.49A39.4,39.4,0,0,0,21.182-10.7Zm4.662.532a12.858,12.858,0,0,1-2.212,5.81,11.218,11.218,0,0,1-5.5,3.668L19.348.546a12.361,12.361,0,0,0,5.5-4.06,15.561,15.561,0,0,0,2.338-5.264,7.706,7.706,0,0,1,.294-.924Zm-8.554.322-1.4.5a36.275,36.275,0,0,1,1.582,3.892l1.414-.518C18.55-6.9,17.682-9.016,17.29-9.842Zm24.038.378a20.288,20.288,0,0,0-1.134-1.918L39.3-11A14.373,14.373,0,0,1,40.292-9.3l-.056-.028a3.231,3.231,0,0,1-1.05.14h-3.4l.168-.294c.154-.28.448-.826.728-1.246l-1.6-.5a5.624,5.624,0,0,1-.532,1.274,12.587,12.587,0,0,1-4.48,4.76l1.19.924a15.808,15.808,0,0,0,3.7-3.654H39.4a11.218,11.218,0,0,1-1.638,3.4c-1.022-.616-2.1-1.218-2.884-1.624L33.95-5.1c.756.42,1.834,1.064,2.856,1.736A12.015,12.015,0,0,1,31.43-.028l1.26,1.106a13.1,13.1,0,0,0,5.348-3.626c.518.364.98.7,1.316.98l.994-1.274c-.35-.252-.826-.574-1.344-.91A14.8,14.8,0,0,0,40.992-7.77a4.791,4.791,0,0,1,.392-.854l-.826-.5Zm-.448-2.128A14.051,14.051,0,0,1,42.028-9.66l.91-.406a16.55,16.55,0,0,0-1.162-1.9Zm11.48.756a29.77,29.77,0,0,0,4,5.572A6.53,6.53,0,0,1,57.47-6.4a20.023,20.023,0,0,1-3.822-4.984Zm-3.92-.546A12.88,12.88,0,0,1,44.828-6.23a7.2,7.2,0,0,1,1.246.966,17.187,17.187,0,0,0,3.836-5.712Zm4.088,7.7c.6.742,1.246,1.624,1.82,2.478-1.89.1-3.808.182-5.516.252a56.048,56.048,0,0,0,2.576-5.376l-1.54-.378A36.7,36.7,0,0,1,47.334-.9c-.7.028-1.344.056-1.918.07L45.584.546c2.478-.126,6.1-.308,9.534-.518q.378.63.63,1.134l1.33-.714a31.81,31.81,0,0,0-3.3-4.7ZM63.742-4.858h2.45v-1.26H60.116v1.26H62.44v3.752c-1.064.2-2.03.378-2.786.5L60.032.714c1.792-.392,4.3-.938,6.622-1.47l-.1-1.176c-.938.2-1.89.392-2.814.56Zm4.984-6.1a10.965,10.965,0,0,1,1.89,1.708l.91-.812a10.63,10.63,0,0,0-1.946-1.61Zm3.29,2.982V-9.254H68c-.028-.784-.042-1.61-.028-2.422h-1.4c0,.812.028,1.624.056,2.422H59.612V-7.98h7.1c.35,5.04,1.456,9.114,3.766,9.114,1.162,0,1.624-.686,1.848-3.206a3.3,3.3,0,0,1-1.148-.742c-.084,1.82-.252,2.576-.588,2.576-1.218,0-2.2-3.332-2.506-7.742ZM85.2-9.856c-.28-.518-.756-1.344-1.106-1.848l-.938.392a16,16,0,0,1,.924,1.54,4.965,4.965,0,0,1-.616.028h-6.79a12.666,12.666,0,0,1-1.512-.1v1.554c.35-.014.91-.042,1.512-.042h6.874a9.8,9.8,0,0,1-1.75,4.3A9.3,9.3,0,0,1,76.328-.7l1.2,1.316A10.83,10.83,0,0,0,83.09-3.178a13.778,13.778,0,0,0,2.1-5.138,4.254,4.254,0,0,1,.252-.812l-.77-.5Zm-.182-1.82A15.514,15.514,0,0,1,86.156-9.8l.952-.42c-.28-.518-.8-1.358-1.134-1.848Zm13.846,3.36v6.3H91.6v-6.3Zm1.47-.21c0-.392,0-.826.028-1.2-.462.014-.966.014-1.288.014h-7.6c-.35,0-.8,0-1.344-.028.014.378.014.854.014,1.218v6.874c0,.56-.028,1.68-.028,1.806H91.63c-.014-.07-.014-.406-.014-.784h7.252c-.014.392-.014.714-.028.784h1.526c0-.112-.028-1.316-.028-1.806ZM109.2-8.96c.084-.126.14-.238.21-.364.154-.28.448-.812.728-1.232l-1.624-.532A6.559,6.559,0,0,1,108-9.828a11.974,11.974,0,0,1-4.4,4.634l1.232.91A14.5,14.5,0,0,0,108.374-7.7h4.382a10.606,10.606,0,0,1-2.128,4.13,11.2,11.2,0,0,1-5.614,3.486l1.3,1.162a12.6,12.6,0,0,0,5.6-3.864,13.856,13.856,0,0,0,2.464-4.76,4.791,4.791,0,0,1,.392-.854l-1.148-.7a3.288,3.288,0,0,1-1.05.14Zm3.6-1.974A16.71,16.71,0,0,1,113.9-9l.924-.392a20.288,20.288,0,0,0-1.134-1.918Zm1.582-.6A14.051,14.051,0,0,1,115.528-9.6l.91-.406a16.55,16.55,0,0,0-1.162-1.9Z" transform="translate(1250 960)"/>
    <g id="Group_6058" data-name="Group 6058" transform="translate(1204.885 956.517)">
      <g id="Group_6057" data-name="Group 6057" transform="translate(0 0)" clip-path="url(#clip-path)">
        <path id="Path_21948" data-name="Path 21948" d="M11.122,0c4.249,0,6.3,2.739,6.3,5.887a4.88,4.88,0,0,1-3.1,4.838c.944.35,3.908,1.37,3.908,5.683a6.233,6.233,0,0,1-6.636,6.557H0V0ZM3.909,3.381V9.617h6.348A2.947,2.947,0,0,0,13.4,6.411a2.88,2.88,0,0,0-3.148-3.031Zm0,9.355v6.849h6.479c1.679,0,3.83-.787,3.83-3.5s-2.125-3.351-3.856-3.351Z" transform="translate(0 0)"/>
      </g>
    </g>
  </g>
</svg>
