<svg xmlns="http://www.w3.org/2000/svg" width="320" height="85" viewBox="0 0 320 85">
  <g id="Group_6099" data-name="Group 6099" transform="translate(-420 -747)">
    <rect id="Rectangle_3104" data-name="Rectangle 3104" width="320" height="85" transform="translate(420 747)" fill="#fff"/>
    <g id="Group_6056" data-name="Group 6056" transform="translate(-658 -2078.579)">
      <g id="Rectangle_3105" data-name="Rectangle 3105" transform="translate(1344 2855)" fill="none" stroke="#000" stroke-width="2">
        <rect width="36" height="24" stroke="none"/>
        <rect x="1" y="1" width="34" height="22" fill="none"/>
      </g>
      <path id="Path_21947" data-name="Path 21947" d="M-3588.056,2872.158h16.022" transform="translate(4942.045 9)" fill="none" stroke="#000" stroke-width="2"/>
      <path id="Polygon_26" data-name="Polygon 26" d="M5.5,0,11,10H0Z" transform="translate(1368.5 2861.5) rotate(90)"/>
    </g>
    <path id="Path_22197" data-name="Path 22197" d="M8.873-3.553H8.93l4.655-9.367H15.39L16.834,0H14.8L13.737-10.26h-.076L8.816-.779H8.151L3.4-10.241H3.325L2.356,0H1.026L2.47-12.92h1.8ZM26.315-4.826H21.451L19.361,0H17.936l5.7-12.73,1.425-.209L30.5,0h-2.2ZM21.888-5.947h4.028L24-10.678H23.9ZM32.357-12.92h9.88v.437L34.162-1.273v.114q4.921,0,6.394-.038a15.813,15.813,0,0,0,2.556-.247h.114L42.446,0H31.274V-.532l8.037-11.134v-.114H31.977Zm17.879,0a7.537,7.537,0,0,1,5.2,1.625,6.182,6.182,0,0,1,1.814,4.854,5.848,5.848,0,0,1-2.023,4.75A8.128,8.128,0,0,1,49.837,0H45.315V-12.92ZM49.552-1.14a5.762,5.762,0,0,0,4.142-1.349A5.227,5.227,0,0,0,55.1-6.441a5.437,5.437,0,0,0-1.33-4.028,5.613,5.613,0,0,0-4.085-1.311H47.31V-1.14ZM66.31-4.826H61.446L59.356,0H57.931l5.7-12.73,1.425-.209L70.49,0h-2.2ZM61.883-5.947h4.028l-1.919-4.731h-.1Zm22.4,2.394h.057L89-12.92H90.8L92.245,0H90.212L89.148-10.26h-.076L84.227-.779h-.665l-4.75-9.462h-.076L77.767,0h-1.33l1.444-12.92h1.805Zm16.872-9.6a8.026,8.026,0,0,1,2.536.4,7.145,7.145,0,0,1,2.2,1.188,5.463,5.463,0,0,1,1.586,2.109,7.273,7.273,0,0,1,.589,2.993,7.061,7.061,0,0,1-.589,2.926,5.652,5.652,0,0,1-1.567,2.109A7.333,7.333,0,0,1,103.749-.2a7.156,7.156,0,0,1-2.441.428,8.114,8.114,0,0,1-2.546-.4,7.121,7.121,0,0,1-2.214-1.187,5.545,5.545,0,0,1-1.6-2.109,7.173,7.173,0,0,1-.6-2.992,7.061,7.061,0,0,1,.589-2.926A5.652,5.652,0,0,1,96.51-11.5a7.3,7.3,0,0,1,2.175-1.226A7.29,7.29,0,0,1,101.156-13.148Zm.152,12.217a4.165,4.165,0,0,0,3.325-1.52,5.979,5.979,0,0,0,1.292-4.009,5.912,5.912,0,0,0-1.34-3.981,4.329,4.329,0,0,0-3.449-1.567,4.165,4.165,0,0,0-3.325,1.52A6.009,6.009,0,0,0,96.52-6.46a5.9,5.9,0,0,0,1.33,3.971A4.332,4.332,0,0,0,101.308-.931ZM115.824,0h-1.577l-5.3-12.92h2.223l4.237,10.678h.076l4.142-10.678h1.52Zm9.139-12.92V0h-2V-12.92Zm7.98,11.761a15.75,15.75,0,0,0,2.717-.152h.114L135.128,0H128.5V-12.92h6.365v1.14h-4.389v4.636h3.933v1.121h-3.933v4.864Zm20.482-9.272a5.4,5.4,0,0,0-3.9-1.52,5.07,5.07,0,0,0-3.714,1.453A5.5,5.5,0,0,0,144.343-6.4a5.125,5.125,0,0,0,1.492,3.962,5.216,5.216,0,0,0,3.676,1.377A6.433,6.433,0,0,0,153.9-2.508h.19l-.475,1.691a6.282,6.282,0,0,1-1.862.751,9.683,9.683,0,0,1-2.394.295,7.692,7.692,0,0,1-5.206-1.72,6.154,6.154,0,0,1-1.995-4.931,6.808,6.808,0,0,1,.608-2.916,5.831,5.831,0,0,1,1.624-2.119,7.449,7.449,0,0,1,2.318-1.254,8.508,8.508,0,0,1,2.727-.437A7.441,7.441,0,0,1,153.52-12.1l.133,1.672Zm5.054-2.489v5.51h6.783v-5.51h2V0h-2V-6.194h-6.783V0h-1.995V-12.92ZM177.4-4.826h-4.864L170.449,0h-1.425l5.7-12.73,1.425-.209L181.583,0h-2.2Zm-4.427-1.121H177l-1.919-4.731h-.1ZM192.85-3.5l-.019-9.424h1.292v13h-.855l-8.531-10.184h-.1L184.661,0h-1.292V-12.92h1.6L192.793-3.5Zm14.288,0-.019-9.424h1.292v13h-.855l-8.531-10.184h-.1L198.949,0h-1.292V-12.92h1.6L207.081-3.5Zm9.253,2.337a15.751,15.751,0,0,0,2.717-.152h.114L218.576,0h-6.631V-12.92h6.365v1.14h-4.389v4.636h3.933v1.121h-3.933v4.864Zm8.721,0a16.038,16.038,0,0,0,2.679-.152h.114L227.259,0h-5.814V-12.92h1.995V-1.159Z" transform="translate(438 796)" fill="#3c3c3c"/>
  </g>
</svg>
