<svg id="Group_6118" data-name="Group 6118" xmlns="http://www.w3.org/2000/svg" xmlns:xlink="http://www.w3.org/1999/xlink" width="80.409" height="62.032" viewBox="0 0 80.409 62.032">
  <defs>
    <clipPath id="clip-path">
      <rect id="Rectangle_3151" data-name="Rectangle 3151" width="80.409" height="62.032" fill="none"/>
    </clipPath>
  </defs>
  <g id="Group_6117" data-name="Group 6117" clip-path="url(#clip-path)">
    <path id="Path_21991" data-name="Path 21991" d="M50.45,0c-17.1,0-31.014,10.118-31.014,22.557S33.349,45.113,50.45,45.113,81.467,34.994,81.467,22.557,67.554,0,50.45,0m0,42.245c-15.52,0-28.147-8.832-28.147-19.689S34.93,2.867,50.45,2.867C63.8,2.867,75.009,9.4,77.885,18.136c.851,4.07-.041,7.291-1.676,9.318a6.985,6.985,0,0,1-5.523,2.426,5.053,5.053,0,0,1-3.968-1.671c-.69-.949-.761-2.285-.217-3.973,1.406-2.686,1.658-5.165.677-6.878a4.063,4.063,0,0,0-3.715-1.978c-3.186,0-8.1,3.218-11.037,7.006-5.553,5.447-12.761,7.7-17.573,7.439-2.672-.146-4.661-1.02-5.6-2.461a5.116,5.116,0,0,1-.711-4.191c.705-2.907,3.681-6.163,7.771-8.5,5.378-3.074,10.864-2.352,11.506-1.418a1.451,1.451,0,0,1,.112.559c0,1.539-2.293,3.482-6.246,5.229a17.71,17.71,0,0,1-10.247,1.17v3.1a20.772,20.772,0,0,0,11.48-1.484c8.67-3.83,8.55-7.765,7.708-9.769a4.055,4.055,0,0,0-2.659-2.14C45.1,8.949,39.759,9.195,34.8,12.028c-4.864,2.779-8.311,6.678-9.22,10.428A8.228,8.228,0,0,0,26.7,29.023c1.481,2.279,4.316,3.644,7.986,3.843a26.529,26.529,0,0,0,15.3-4.611,4.673,4.673,0,0,0,.589,2.291,4.914,4.914,0,0,0,4.454,2.291c2.634,0,5.935-1.85,8.543-4.577a5.764,5.764,0,0,0,.819,1.633,7.854,7.854,0,0,0,6.29,2.854,10.589,10.589,0,0,0,4.709-1.071c-4.71,6.278-14.122,10.57-24.944,10.57M53.913,25.6a12.433,12.433,0,0,1,.794-1.183,29.425,29.425,0,0,0,2-2.205c2.335-2.185,5.169-3.787,6.755-3.787.815,0,1,.324,1.071.447.393.686.231,2.331-1.016,4.465-2.223,3.8-6.257,6.451-8.484,6.451a2.064,2.064,0,0,1-1.812-.761c-.407-.71-.148-1.992.692-3.428" transform="translate(-10.247)" fill="#006830"/>
    <path id="Path_21992" data-name="Path 21992" d="M161.264,93.7a3.959,3.959,0,1,1,0-.01Zm-7.667,0a3.716,3.716,0,1,0,0-.01Zm2.306,2.393V91.3h1.185c1.3,0,1.865.412,1.865,1.234a1.17,1.17,0,0,1-1,1.246,1.4,1.4,0,0,1,.832.818c.191.434.476,1.079.645,1.5h-.564A5.324,5.324,0,0,0,158,94.327a1.165,1.165,0,0,0-.963-.386H156.4v2.151Zm2.551-3.51c0-.56-.324-.86-1.3-.86H156.4v1.824h1.079a.893.893,0,0,0,.979-.964" transform="translate(-80.855 -47.311)" fill="#006830"/>
    <path id="Path_21993" data-name="Path 21993" d="M150.318,121h-5.566V120l2.184-2.174q.535-.531.873-.919a5.043,5.043,0,0,0,.523-.707,2.318,2.318,0,0,0,.252-.606,2.588,2.588,0,0,0,.062-.614,1.927,1.927,0,0,0-.085-.592,1.342,1.342,0,0,0-.255-.494,1.2,1.2,0,0,0-.451-.337,1.648,1.648,0,0,0-.665-.123,2,2,0,0,0-.979.24,3.372,3.372,0,0,0-.809.621l-.62-.743a3.852,3.852,0,0,1,1.1-.81,3.255,3.255,0,0,1,1.451-.3,3,3,0,0,1,1.026.166,2.3,2.3,0,0,1,.8.486,2.159,2.159,0,0,1,.522.776,2.75,2.75,0,0,1,.185,1.035,3.051,3.051,0,0,1-.13.9,3.551,3.551,0,0,1-.391.825,6.518,6.518,0,0,1-.661.85c-.266.293-.576.614-.938.964l-1.534,1.493h4.106Z" transform="translate(-76.317 -59.279)" fill="#006830"/>
    <path id="Path_21994" data-name="Path 21994" d="M164.048,121.089h-4.977V120.04h2.008v-6.167l-2.024,1.1-.416-.957,2.69-1.416h1v7.442h1.721Z" transform="translate(-83.639 -59.365)" fill="#006830"/>
    <path id="Path_21995" data-name="Path 21995" d="M8.175,114.175v1.139H5v5.028H8.737v1.139H0v-1.139H3.775v-5.028H.559v-1.139Z" transform="translate(0 -60.196)" fill="#006830"/>
    <path id="Path_21996" data-name="Path 21996" d="M29.409,114.438v7.172H21.915v-1.119h6.273v-4.933H21.959v-1.12Z" transform="translate(-11.554 -60.335)" fill="#006830"/>
    <path id="Path_21997" data-name="Path 21997" d="M50.158,113.013a5.6,5.6,0,0,1-3.1,4.446l-.776-.933a3.892,3.892,0,0,0,2.277-2.416H41.264v-1.1Zm-8.508,7.578c1.844-.716,3.1-1.846,3.115-5.516l1.268.031c-.115,3.721-1.433,5.328-3.639,6.4Z" transform="translate(-21.755 -59.583)" fill="#006830"/>
    <path id="Path_21998" data-name="Path 21998" d="M69.539,113.475c-.3,1.742-1.151,6.812-7.411,7.609l-.487-1.057c3.378-.5,5.368-1.783,6.352-5.453h-3.7a9.223,9.223,0,0,1-2.5,2.384l-.765-.88a7.44,7.44,0,0,0,3.369-4.073l1.276.248a6.05,6.05,0,0,1-.59,1.222Z" transform="translate(-32.176 -59.052)" fill="#006830"/>
    <path id="Path_21999" data-name="Path 21999" d="M84.581,117.323a14.023,14.023,0,0,0-2.9-1.181l.538-1.047a11.8,11.8,0,0,1,2.9,1.14ZM82.24,119.9c3.908-.2,5.73-1.6,7.048-5.63l1.129.5c-1.262,3.543-3.034,5.99-7.886,6.374Zm3.222-4.892a14.6,14.6,0,0,0-3.005-1.192L83,112.793a12.626,12.626,0,0,1,2.994,1.15Z" transform="translate(-43.064 -59.467)" fill="#006830"/>
    <path id="Path_22000" data-name="Path 22000" d="M109.919,117.287v6.177h-5.837v-1.036h4.726V120.8H104.29v-1.027h4.518V118.3h-4.6v-1.016Z" transform="translate(-54.875 -61.837)" fill="#006830"/>
    <path id="Path_22001" data-name="Path 22001" d="M124.114,116.034a11.578,11.578,0,0,0-3.129-1.523l.559-1.016a11.474,11.474,0,0,1,3.214,1.42Zm-3.027,4.28c3.879-.278,6.123-1.772,7.565-6.176l1.172.529c-1.525,4.426-3.764,6.384-8.353,6.955Z" transform="translate(-63.786 -59.838)" fill="#006830"/>
  </g>
</svg>
