<svg xmlns="http://www.w3.org/2000/svg" width="13.243" height="13.102" viewBox="0 0 13.243 13.102">
  <g id="Group_6116" data-name="Group 6116" transform="translate(0)">
    <path id="Path_21926" data-name="Path 21926" d="M291.286,137.7h-3.945a.639.639,0,1,0,0,1.279h1.95l-3.175,3.175a.959.959,0,0,0,1.356,1.356l3.175-3.175v1.949a.639.639,0,1,0,1.278,0V138.34a.639.639,0,0,0-.639-.639" transform="translate(-278.682 -137.701)" fill="#999"/>
    <path id="Path_21927" data-name="Path 21927" d="M270.7,147.752a.678.678,0,0,0-.678.678v3.525a.671.671,0,0,1-.671.671h-7.867a.671.671,0,0,1-.671-.671v-7.867a.671.671,0,0,1,.671-.67h3.254a.678.678,0,0,0,0-1.356h-3.254a2.029,2.029,0,0,0-2.026,2.026v7.867a2.029,2.029,0,0,0,2.026,2.026h7.867a2.029,2.029,0,0,0,2.026-2.026V148.43a.678.678,0,0,0-.678-.678" transform="translate(-259.456 -140.879)" fill="#999"/>
  </g>
</svg>
