<svg id="Group_6047" data-name="Group 6047" xmlns="http://www.w3.org/2000/svg" xmlns:xlink="http://www.w3.org/1999/xlink" width="22.885" height="17.844" viewBox="0 0 22.885 17.844">
  <defs>
    <clipPath id="clip-path">
      <rect id="Rectangle_3080" data-name="Rectangle 3080" width="22.885" height="17.844" fill="#999"/>
    </clipPath>
  </defs>
  <g id="Group_6046" data-name="Group 6046" transform="translate(0 0)" clip-path="url(#clip-path)">
    <path id="Path_21928" data-name="Path 21928" d="M11.973,17.844H4.49A4.8,4.8,0,0,1,0,12.992V4.49A4.5,4.5,0,0,1,4.49,0H18.4a4.5,4.5,0,0,1,4.49,4.49v8.5a4.8,4.8,0,0,1-4.49,4.852H11.973ZM4.49,1.567A2.926,2.926,0,0,0,1.567,4.49v8.5A3.244,3.244,0,0,0,4.49,16.277H18.4a3.244,3.244,0,0,0,2.923-3.285V4.49A2.926,2.926,0,0,0,18.4,1.567Z" transform="translate(0 0)" fill="#999"/>
    <path id="Path_21929" data-name="Path 21929" d="M15.818,16.168l-8.3-4.225A.588.588,0,0,1,8.054,10.9l7.773,3.958,8.016-3.962a.588.588,0,1,1,.521,1.054Z" transform="translate(-4.379 -6.588)" fill="#999"/>
  </g>
</svg>
