<svg xmlns="http://www.w3.org/2000/svg" width="16.975" height="18.863" viewBox="0 0 16.975 18.863">
  <g id="Group_6052" data-name="Group 6052" transform="translate(0 0)">
    <g id="Group_67" data-name="Group 67" transform="translate(9.918 13.29)">
      <path id="Path_100" data-name="Path 100" d="M1476.471,3155.886a.086.086,0,0,0-.045.122l2.29,4.443a.105.105,0,0,0,.133.048l1.406-.642a.088.088,0,0,0,.039-.126l-2.478-4.231a.1.1,0,0,0-.133-.036Z" transform="translate(-1476.415 -3155.451)" fill="#fff"/>
    </g>
    <path id="Path_101" data-name="Path 101" d="M1464.32,3131.894a.084.084,0,0,1-.124-.033l-2.292-4.442a.106.106,0,0,1,.038-.136l1.339-.772a.088.088,0,0,1,.125.042l2.01,4.473a.1.1,0,0,1-.049.129Z" transform="translate(-1458.641 -3126.498)" fill="#fff"/>
    <path id="Path_102" data-name="Path 102" d="M1460.343,3139.219a22.461,22.461,0,0,1-1.051-2.395,3.747,3.747,0,0,1,.381-2.323.215.215,0,0,0,0-.173l-2.268-4.4a.165.165,0,0,0-.274-.068,6.679,6.679,0,0,0-2.271,4.528,12.113,12.113,0,0,0,1.463,6.688,12.246,12.246,0,0,0,4.623,5.117,6.68,6.68,0,0,0,5.007.776.164.164,0,0,0,.1-.262l-2.269-4.4a.213.213,0,0,0-.139-.1,3.741,3.741,0,0,1-2.114-1.037,22.606,22.606,0,0,1-1.342-2.244" transform="translate(-1454.807 -3128.291)" fill="#fff"/>
    <g id="Group_68" data-name="Group 68" transform="translate(9.566 0.958)">
      <path id="Path_103" data-name="Path 103" d="M1483.348,3139.923l-1.2-.441a7.376,7.376,0,0,0-4.981-9.662l.336-1.234a8.653,8.653,0,0,1,5.846,11.338Z" transform="translate(-1476.468 -3128.585)" fill="#fff"/>
      <path id="Path_104" data-name="Path 104" d="M1480.09,3142.015l-.954-.371a5.079,5.079,0,0,0-3.49-6.767l.252-.993a6.1,6.1,0,0,1,4.191,8.13Z" transform="translate(-1475.647 -3131.452)" fill="#fff"/>
    </g>
  </g>
</svg>
