<svg xmlns="http://www.w3.org/2000/svg" width="51.938" height="51.073" viewBox="0 0 51.938 51.073">
  <g id="Group_6115" data-name="Group 6115" transform="translate(0)">
    <path id="Path_6684" data-name="Path 6684" d="M1434.734,513.668c0,7.675-4.849,13.782-10.626,19.223-2.871,2.706-13.774,9.91-16.429,9.608-.834-.1-1.71-1.306-.446-2.955a1.859,1.859,0,0,0-.36-2.841,23.287,23.287,0,0,0-3.318-.762c-11.835-2.176-20.759-11-20.759-22.273,0-12.884,11.627-22.232,25.969-22.232S1434.734,500.784,1434.734,513.668Z" transform="translate(-1382.796 -491.436)" fill="#999"/>
    <g id="Group_2904" data-name="Group 2904" transform="translate(8.408 15.985)">
      <path id="Path_6685" data-name="Path 6685" d="M1391.149,519.507V507.922c0-.392.329-.593,1.1-.593h.625c.773,0,1.1.2,1.1.593v9.912h4.1c.391,0,.55.275.55.91v.572c0,.646-.159.922-.55.922h-6.2C1391.371,520.238,1391.149,520.015,1391.149,519.507Z" transform="translate(-1391.149 -507.318)" fill="#1c1c1c"/>
      <path id="Path_6686" data-name="Path 6686" d="M1399.87,519.687V507.922c0-.392.339-.6,1.113-.6h.634c.773,0,1.1.212,1.1.6v11.765c0,.38-.328.6-1.1.6h-.634C1400.209,520.291,1399.87,520.068,1399.87,519.687Z" transform="translate(-1391.092 -507.318)" fill="#1c1c1c"/>
      <path id="Path_6687" data-name="Path 6687" d="M1405.141,519.687V507.922c0-.392.328-.593,1.1-.593h.794a1.253,1.253,0,0,1,1.208.5l4.342,6.693.5.751v-7.348c0-.392.328-.593,1.1-.593h.53c.773,0,1.1.2,1.1.593v11.765c0,.38-.328.583-1.1.583h-.7a1.246,1.246,0,0,1-1.207-.488l-4.544-6.957-.392-.583v7.445c0,.38-.328.583-1.1.583h-.531C1405.469,520.27,1405.141,520.067,1405.141,519.687Z" transform="translate(-1391.058 -507.318)" fill="#1c1c1c"/>
      <path id="Path_6688" data-name="Path 6688" d="M1418.27,519.507V508.1c0-.508.221-.731.73-.731h6.736c.38,0,.55.276.55.921v.562c0,.645-.169.921-.55.921H1421.1v2.669h4.14c.382,0,.551.275.551.921v.572c0,.635-.169.911-.551.911h-4.14v2.986h4.649c.392,0,.551.275.551.91v.572c0,.646-.159.922-.551.922H1419C1418.491,520.237,1418.27,520.015,1418.27,519.507Z" transform="translate(-1390.972 -507.318)" fill="#1c1c1c"/>
    </g>
  </g>
</svg>
